<mxfile host="app.diagrams.net" modified="2023-02-08T08:03:37.676Z" agent="5.0 (Windows NT 10.0; Win64; x64) AppleWebKit/537.36 (KHTML, like Gecko) Chrome/109.0.0.0 Safari/537.36" etag="QqBpVPCydjMNYCcZZO7G" version="20.6.0" type="github">
  <diagram id="C5RBs43oDa-KdzZeNtuy" name="Page-1">
    <mxGraphModel dx="1422" dy="882" grid="1" gridSize="10" guides="1" tooltips="1" connect="1" arrows="1" fold="1" page="1" pageScale="1" pageWidth="827" pageHeight="1169" math="0" shadow="0">
      <root>
        <mxCell id="WIyWlLk6GJQsqaUBKTNV-0" />
        <mxCell id="WIyWlLk6GJQsqaUBKTNV-1" parent="WIyWlLk6GJQsqaUBKTNV-0" />
        <mxCell id="szQDdLE0vZjQEvIjQsBp-7" value="" style="edgeStyle=orthogonalEdgeStyle;rounded=0;orthogonalLoop=1;jettySize=auto;html=1;entryX=0.5;entryY=0;entryDx=0;entryDy=0;" edge="1" parent="WIyWlLk6GJQsqaUBKTNV-1" source="szQDdLE0vZjQEvIjQsBp-0" target="szQDdLE0vZjQEvIjQsBp-6">
          <mxGeometry relative="1" as="geometry">
            <mxPoint x="220" y="320" as="targetPoint" />
          </mxGeometry>
        </mxCell>
        <mxCell id="szQDdLE0vZjQEvIjQsBp-0" value="" style="ellipse;whiteSpace=wrap;html=1;aspect=fixed;fillColor=#d5e8d4;strokeColor=#82b366;" vertex="1" parent="WIyWlLk6GJQsqaUBKTNV-1">
          <mxGeometry x="200" y="100" width="40" height="40" as="geometry" />
        </mxCell>
        <mxCell id="szQDdLE0vZjQEvIjQsBp-1" value="Master" style="text;html=1;resizable=0;autosize=1;align=center;verticalAlign=middle;points=[];fillColor=none;strokeColor=none;rounded=0;" vertex="1" parent="WIyWlLk6GJQsqaUBKTNV-1">
          <mxGeometry x="190" y="50" width="60" height="30" as="geometry" />
        </mxCell>
        <mxCell id="szQDdLE0vZjQEvIjQsBp-10" value="" style="edgeStyle=orthogonalEdgeStyle;rounded=0;orthogonalLoop=1;jettySize=auto;html=1;" edge="1" parent="WIyWlLk6GJQsqaUBKTNV-1" source="szQDdLE0vZjQEvIjQsBp-3" target="szQDdLE0vZjQEvIjQsBp-9">
          <mxGeometry relative="1" as="geometry" />
        </mxCell>
        <mxCell id="szQDdLE0vZjQEvIjQsBp-20" style="edgeStyle=orthogonalEdgeStyle;rounded=0;orthogonalLoop=1;jettySize=auto;html=1;entryX=0.5;entryY=0;entryDx=0;entryDy=0;" edge="1" parent="WIyWlLk6GJQsqaUBKTNV-1" source="szQDdLE0vZjQEvIjQsBp-3" target="szQDdLE0vZjQEvIjQsBp-15">
          <mxGeometry relative="1" as="geometry" />
        </mxCell>
        <mxCell id="szQDdLE0vZjQEvIjQsBp-3" value="" style="ellipse;whiteSpace=wrap;html=1;aspect=fixed;fillColor=#d5e8d4;strokeColor=#82b366;" vertex="1" parent="WIyWlLk6GJQsqaUBKTNV-1">
          <mxGeometry x="200" y="170" width="40" height="40" as="geometry" />
        </mxCell>
        <mxCell id="szQDdLE0vZjQEvIjQsBp-8" value="" style="edgeStyle=orthogonalEdgeStyle;rounded=0;orthogonalLoop=1;jettySize=auto;html=1;" edge="1" parent="WIyWlLk6GJQsqaUBKTNV-1" target="szQDdLE0vZjQEvIjQsBp-6">
          <mxGeometry relative="1" as="geometry">
            <mxPoint x="220" y="280" as="sourcePoint" />
          </mxGeometry>
        </mxCell>
        <mxCell id="szQDdLE0vZjQEvIjQsBp-24" value="" style="edgeStyle=orthogonalEdgeStyle;rounded=0;orthogonalLoop=1;jettySize=auto;html=1;" edge="1" parent="WIyWlLk6GJQsqaUBKTNV-1" source="szQDdLE0vZjQEvIjQsBp-6" target="szQDdLE0vZjQEvIjQsBp-22">
          <mxGeometry relative="1" as="geometry" />
        </mxCell>
        <mxCell id="szQDdLE0vZjQEvIjQsBp-6" value="" style="ellipse;whiteSpace=wrap;html=1;aspect=fixed;fillColor=#d5e8d4;strokeColor=#82b366;" vertex="1" parent="WIyWlLk6GJQsqaUBKTNV-1">
          <mxGeometry x="200" y="380" width="40" height="40" as="geometry" />
        </mxCell>
        <mxCell id="szQDdLE0vZjQEvIjQsBp-17" value="" style="edgeStyle=orthogonalEdgeStyle;rounded=0;orthogonalLoop=1;jettySize=auto;html=1;" edge="1" parent="WIyWlLk6GJQsqaUBKTNV-1" source="szQDdLE0vZjQEvIjQsBp-9" target="szQDdLE0vZjQEvIjQsBp-13">
          <mxGeometry relative="1" as="geometry" />
        </mxCell>
        <mxCell id="szQDdLE0vZjQEvIjQsBp-9" value="" style="ellipse;whiteSpace=wrap;html=1;fillColor=#fff2cc;strokeColor=#d6b656;" vertex="1" parent="WIyWlLk6GJQsqaUBKTNV-1">
          <mxGeometry x="290" y="175" width="50" height="30" as="geometry" />
        </mxCell>
        <mxCell id="szQDdLE0vZjQEvIjQsBp-11" value="Develop 1" style="text;html=1;resizable=0;autosize=1;align=center;verticalAlign=middle;points=[];fillColor=none;strokeColor=none;rounded=0;" vertex="1" parent="WIyWlLk6GJQsqaUBKTNV-1">
          <mxGeometry x="270" y="50" width="80" height="30" as="geometry" />
        </mxCell>
        <mxCell id="szQDdLE0vZjQEvIjQsBp-12" value="Develop 2" style="text;html=1;resizable=0;autosize=1;align=center;verticalAlign=middle;points=[];fillColor=none;strokeColor=none;rounded=0;" vertex="1" parent="WIyWlLk6GJQsqaUBKTNV-1">
          <mxGeometry x="373.5" y="50" width="80" height="30" as="geometry" />
        </mxCell>
        <mxCell id="szQDdLE0vZjQEvIjQsBp-18" value="" style="edgeStyle=orthogonalEdgeStyle;rounded=0;orthogonalLoop=1;jettySize=auto;html=1;" edge="1" parent="WIyWlLk6GJQsqaUBKTNV-1" source="szQDdLE0vZjQEvIjQsBp-13" target="szQDdLE0vZjQEvIjQsBp-14">
          <mxGeometry relative="1" as="geometry" />
        </mxCell>
        <mxCell id="szQDdLE0vZjQEvIjQsBp-13" value="" style="ellipse;whiteSpace=wrap;html=1;fillColor=#fff2cc;strokeColor=#d6b656;" vertex="1" parent="WIyWlLk6GJQsqaUBKTNV-1">
          <mxGeometry x="290" y="270" width="50" height="30" as="geometry" />
        </mxCell>
        <mxCell id="szQDdLE0vZjQEvIjQsBp-19" style="edgeStyle=orthogonalEdgeStyle;rounded=0;orthogonalLoop=1;jettySize=auto;html=1;entryX=1;entryY=0.5;entryDx=0;entryDy=0;" edge="1" parent="WIyWlLk6GJQsqaUBKTNV-1" source="szQDdLE0vZjQEvIjQsBp-14" target="szQDdLE0vZjQEvIjQsBp-6">
          <mxGeometry relative="1" as="geometry" />
        </mxCell>
        <mxCell id="szQDdLE0vZjQEvIjQsBp-14" value="" style="ellipse;whiteSpace=wrap;html=1;fillColor=#fff2cc;strokeColor=#d6b656;" vertex="1" parent="WIyWlLk6GJQsqaUBKTNV-1">
          <mxGeometry x="290" y="350" width="50" height="30" as="geometry" />
        </mxCell>
        <mxCell id="szQDdLE0vZjQEvIjQsBp-21" style="edgeStyle=orthogonalEdgeStyle;rounded=0;orthogonalLoop=1;jettySize=auto;html=1;" edge="1" parent="WIyWlLk6GJQsqaUBKTNV-1" source="szQDdLE0vZjQEvIjQsBp-15" target="szQDdLE0vZjQEvIjQsBp-16">
          <mxGeometry relative="1" as="geometry" />
        </mxCell>
        <mxCell id="szQDdLE0vZjQEvIjQsBp-15" value="" style="ellipse;whiteSpace=wrap;html=1;fillColor=#e1d5e7;strokeColor=#9673a6;" vertex="1" parent="WIyWlLk6GJQsqaUBKTNV-1">
          <mxGeometry x="389" y="245" width="50" height="30" as="geometry" />
        </mxCell>
        <mxCell id="szQDdLE0vZjQEvIjQsBp-23" style="edgeStyle=orthogonalEdgeStyle;rounded=0;orthogonalLoop=1;jettySize=auto;html=1;entryX=1;entryY=0.5;entryDx=0;entryDy=0;" edge="1" parent="WIyWlLk6GJQsqaUBKTNV-1" source="szQDdLE0vZjQEvIjQsBp-16" target="szQDdLE0vZjQEvIjQsBp-22">
          <mxGeometry relative="1" as="geometry" />
        </mxCell>
        <mxCell id="szQDdLE0vZjQEvIjQsBp-16" value="" style="ellipse;whiteSpace=wrap;html=1;fillColor=#e1d5e7;strokeColor=#9673a6;" vertex="1" parent="WIyWlLk6GJQsqaUBKTNV-1">
          <mxGeometry x="389" y="420" width="50" height="30" as="geometry" />
        </mxCell>
        <mxCell id="szQDdLE0vZjQEvIjQsBp-22" value="" style="ellipse;whiteSpace=wrap;html=1;aspect=fixed;fillColor=#d5e8d4;strokeColor=#82b366;" vertex="1" parent="WIyWlLk6GJQsqaUBKTNV-1">
          <mxGeometry x="200" y="490" width="40" height="40" as="geometry" />
        </mxCell>
      </root>
    </mxGraphModel>
  </diagram>
</mxfile>
